<?xml version="1.0" encoding="UTF-8"?>
<!-- Generator: Adobe Illustrator 17.0.0, SVG Export Plug-In . SVG Version: 6.00 Build 0)  -->
<!DOCTYPE svg PUBLIC "-//W3C//DTD SVG 1.1//EN" "http://www.w3.org/Graphics/SVG/1.1/DTD/svg11.dtd">
<svg version="1.1" id="Layer_1" xmlns="http://www.w3.org/2000/svg" xmlns:xlink="http://www.w3.org/1999/xlink" x="0px" y="0px" width="391.92px" height="341.76px" viewBox="0 0 391.92 341.76" enable-background="new 0 0 391.92 341.76" xml:space="preserve">
<g>
	<g>
		<defs>
			<rect id="SVGID_1_" x="0" y="0" width="391.92" height="341.76"/>
		</defs>
		<clipPath id="SVGID_2_">
			<use xlink:href="#SVGID_1_" overflow="visible"/>
		</clipPath>
		<path clip-path="url(#SVGID_2_)" fill="#333333" d="M383.68,30.32h-81.84V8.64c0-4.64-3.762-8.32-8.32-8.32    c-4.641,0-8.321,3.762-8.321,8.32v21.68H106.801V8.64c0-4.64-3.762-8.32-8.321-8.32c-4.558,0-8.32,3.762-8.32,8.32v21.68H8.32    C3.68,30.32,0,34.082,0,38.64v293.84c0,4.641,3.762,8.32,8.32,8.32h282.879c3.68-0.082,5.68-2.242,5.922-2.48l92.399-92.398    C392.16,243.359,392,240,392,240V38.64C392,34,388.238,30.32,383.68,30.32L383.68,30.32z M16.719,46.961H90.16v21.281    c0,4.637,3.762,8.316,8.32,8.316c4.559,0,8.321-3.758,8.321-8.316V46.961h178.32v21.281c0,4.637,3.758,8.316,8.32,8.316    c4.637,0,8.321-3.758,8.321-8.316V46.961h73.437V96.48H16.719V46.961z M16.719,113.121h358.64v118.558h-84.16    c-4.64,0-8.32,3.762-8.32,8.321v84.16H16.719V113.121z M363.52,248.398l-64,64v-64H363.52z M363.52,248.398"/>
	</g>
	<path fill="#333333" d="M122.398,213.441c11.282-6.16,16.961-14.402,16.961-24.723c0-7.277-2.718-13.839-8.238-19.597   c-6.723-7.039-15.601-10.641-26.641-10.641c-6.48,0-12.32,1.199-17.519,3.68c-5.199,2.398-9.281,5.762-12.242,10   c-2.879,4.238-5.117,9.922-6.559,17.039l20.801,3.519c0.559-5.117,2.238-9.039,4.961-11.757c2.719-2.641,6-4,9.84-4   c3.918,0,7.039,1.199,9.359,3.519c2.32,2.32,3.52,5.52,3.52,9.442c0,4.636-1.602,8.398-4.801,11.199c-3.199,2.801-7.84,4.16-14,4   l-2.481,18.398c4-1.121,7.442-1.679,10.403-1.679c4.398,0,8.078,1.679,11.199,4.96c3.039,3.282,4.559,7.84,4.559,13.52   c0,6-1.598,10.801-4.801,14.32c-3.199,3.52-7.117,5.282-11.758,5.282c-4.32,0-8-1.442-11.121-4.403   c-3.039-2.961-4.961-7.199-5.602-12.801l-21.84,2.641c1.122,9.922,5.204,17.922,12.243,24.082c7.039,6.16,15.839,9.199,26.48,9.199   c11.277,0,20.641-3.679,28.16-10.961c7.52-7.281,11.36-16.078,11.36-26.398c0-7.121-2-13.199-6.082-18.242   C134.559,218.16,129.199,214.879,122.398,213.441L122.398,213.441z M122.398,213.441"/>
	<path fill="#333333" d="M196.879,158.558c-11.438,0-20.32,4-26.641,12.082c-7.679,9.758-11.597,25.68-11.597,47.84   c0,22.559,3.519,38.32,10.558,47.121c7.039,8.797,16.242,13.199,27.68,13.199c11.441,0,20.32-4,26.641-12.082   c7.679-9.757,11.601-25.757,11.601-48c0-22.32-3.84-38.32-11.519-47.918C217.199,162.64,208.32,158.558,196.879,158.558   L196.879,158.558z M209.199,248.082c-1.199,4.476-2.801,7.597-4.961,9.359c-2.16,1.758-4.558,2.641-7.277,2.641   c-2.723,0-5.121-0.883-7.281-2.563c-2.078-1.679-3.84-5.121-5.282-10.32c-1.359-5.199-2.078-14.641-2.078-28.481   c0-13.839,0.801-23.597,2.321-29.437c1.199-4.481,2.8-7.602,4.961-9.359c2.16-1.762,4.558-2.641,7.277-2.641   c2.723,0,5.121,0.879,7.281,2.641c2.078,1.757,3.84,5.199,5.281,10.398c1.36,5.199,2.079,14.641,2.079,28.48   C211.52,232.48,210.719,242.32,209.199,248.082L209.199,248.082z M209.199,248.082"/>
</g>
</svg>