<?xml version="1.0" encoding="UTF-8"?>
<!-- Generator: Adobe Illustrator 17.0.0, SVG Export Plug-In . SVG Version: 6.00 Build 0)  -->
<!DOCTYPE svg PUBLIC "-//W3C//DTD SVG 1.1//EN" "http://www.w3.org/Graphics/SVG/1.1/DTD/svg11.dtd">
<svg version="1.1" id="Layer_1" xmlns="http://www.w3.org/2000/svg" xmlns:xlink="http://www.w3.org/1999/xlink" x="0px" y="0px" width="315px" height="392px" viewBox="0 0 315 392" enable-background="new 0 0 315 392" xml:space="preserve">
<g>
	<defs>
		<rect id="SVGID_1_" width="315" height="392"/>
	</defs>
	<clipPath id="SVGID_2_">
		<use xlink:href="#SVGID_1_" overflow="visible"/>
	</clipPath>
	<path clip-path="url(#SVGID_2_)" fill="#333333" d="M311.84,109.359L257.52,62l54.32-47.359c4.64-3.52,4.238-13.762-5.52-14.641   H99.922c-4.641,0-8.32,3.762-8.32,8.32v315.84C54.16,325.199,0,333.121,0,358c0,26.801,62.801,34,100,34c37.121,0,100-7.121,100-34   c0-24.879-54.16-32.801-91.602-33.84V124h198C311.039,124.238,319.199,117.359,311.84,109.359 M183.199,358.078   c-2.398,5.121-29.679,17.281-83.199,17.281c-54.398,0-81.68-12.558-83.359-17.039c1.597-4.718,26.16-16.242,74.961-17.441v13.519   c0,4.641,3.757,8.321,8.32,8.321c4.637,0,8.316-3.758,8.316-8.321v-13.519C156.398,342.078,180.961,353.281,183.199,358.078    M108.32,107.281v-90.48h175.758l-44.719,38.961c-5.437,5.597-1.839,10.957,0,12.558l44.719,38.961H108.32z"/>
</g>
</svg>