<?xml version="1.0" encoding="UTF-8"?>
<!-- Generator: Adobe Illustrator 17.0.0, SVG Export Plug-In . SVG Version: 6.00 Build 0)  -->
<!DOCTYPE svg PUBLIC "-//W3C//DTD SVG 1.1//EN" "http://www.w3.org/Graphics/SVG/1.1/DTD/svg11.dtd">
<svg version="1.1" id="Layer_1" xmlns="http://www.w3.org/2000/svg" xmlns:xlink="http://www.w3.org/1999/xlink" x="0px" y="0px" width="349.602px" height="392px" viewBox="0 0 349.602 392" enable-background="new 0 0 349.602 392" xml:space="preserve">
<g>
	<defs>
		<rect id="SVGID_1_" width="349.602" height="392"/>
	</defs>
	<clipPath id="SVGID_2_">
		<use xlink:href="#SVGID_1_" overflow="visible"/>
	</clipPath>
	<path clip-path="url(#SVGID_2_)" fill="#333333" d="M221.039,292.559c33.039-54.797,74.801-131.84,74.801-171.438   C295.84,54.32,241.52,0,174.719,0C107.922,0,53.602,54.32,53.602,121.121c0,39.598,41.757,116.641,74.796,171.438   C89.199,295.52,0,306.16,0,341.441C0,376.16,90.559,392,174.801,392c84.16,0,174.801-15.84,174.801-50.559   C349.52,306.16,260.238,295.52,221.039,292.559 M70.32,121.121c0-57.601,46.879-104.48,104.399-104.48   c57.601,0,104.48,46.879,104.48,104.48c0,50.32-80.16,176.559-104.48,213.68C150.398,297.68,70.32,171.441,70.32,121.121    M174.719,375.281c-102.321,0-158.078-22.402-158.078-33.922c0-8.879,36.8-28,121.597-32.879c15.922,25.68,28,43.84,29.602,46   c2.16,2.879,8.48,6.321,13.84,0c1.679-2,13.679-20.32,29.601-46c84.797,4.879,121.598,23.918,121.598,32.879   C332.801,352.961,277.039,375.281,174.719,375.281"/>
	<path clip-path="url(#SVGID_2_)" fill="#333333" d="M227.441,121.121c0-29.121-23.601-52.723-52.722-52.723   C145.602,68.398,122,92,122,121.121c0,29.117,23.602,52.719,52.719,52.719C203.84,173.84,227.441,150.238,227.441,121.121    M138.641,121.121c0-19.922,16.16-36.082,36.078-36.082c19.922,0,36.082,16.16,36.082,36.082c0,19.918-16.16,36.078-36.082,36.078   C154.801,157.199,138.641,141.039,138.641,121.121"/>
</g>
</svg>