<?xml version="1.0" encoding="UTF-8"?>
<!-- Generator: Adobe Illustrator 17.0.0, SVG Export Plug-In . SVG Version: 6.00 Build 0)  -->
<!DOCTYPE svg PUBLIC "-//W3C//DTD SVG 1.1//EN" "http://www.w3.org/Graphics/SVG/1.1/DTD/svg11.dtd">
<svg version="1.1" id="Layer_1" xmlns="http://www.w3.org/2000/svg" xmlns:xlink="http://www.w3.org/1999/xlink" x="0px" y="0px" width="391.92px" height="393.84px" viewBox="0 0 391.92 393.84" enable-background="new 0 0 391.92 393.84" xml:space="preserve">
<g>
	<g>
		<defs>
			<rect id="SVGID_1_" x="0" y="0" width="391.92" height="393.84"/>
		</defs>
		<clipPath id="SVGID_2_">
			<use xlink:href="#SVGID_1_" overflow="visible"/>
		</clipPath>
		<path clip-path="url(#SVGID_2_)" fill="#333333" d="M389.5,334.174L257.262,201.853c-3.282-3.277-8.563-3.277-11.762,0    l-16.32,16.321l-21.52-21.52c40.32-46.398,38.481-117.039-5.68-161.199c-22.402-22.32-52.082-34.641-83.679-34.641    c-31.602,0-61.281,12.321-83.68,34.641c-46.16,46.16-46.16,121.199,0,167.359c22.32,22.321,52.078,34.641,83.68,34.641    c28.801,0,56.078-10.242,77.519-28.961l21.52,21.519l-16.32,16.321c-4.719,5.199-1.598,10.242,0,11.761l132.32,132.321    c4.801,4.476,10.16,1.84,11.762,0l44.476-44.403C391.102,344.334,394.059,339.295,389.5,334.174L389.5,334.174z M190.141,190.974    c-19.2,19.2-44.719,29.762-71.84,29.762s-52.641-10.562-71.84-29.762c-39.602-39.601-39.602-104.082,0-143.761    c19.199-19.2,44.719-29.758,71.84-29.758s52.64,10.558,71.84,29.758C229.738,86.892,229.738,151.373,190.141,190.974    L190.141,190.974z M339.18,372.654l-120.481-120.48l32.641-32.641l120.48,120.48L339.18,372.654z M339.18,372.654"/>
	</g>
	<path fill="#333333" d="M124.461,104.095v-32.16c5.277,2.321,8.559,6.641,9.84,13.118l20.801-2.719   c-1.442-8.239-4.723-14.801-9.84-19.68c-5.121-4.879-12.082-7.84-20.801-8.879v-8.082h-11.922v8.16   c-9.437,0.961-16.961,4.481-22.641,10.563c-5.679,6.078-8.476,13.679-8.476,22.637c0,8.882,2.476,16.402,7.519,22.64   c5.039,6.242,12.879,10.883,23.598,13.922v34.398c-2.961-1.437-5.598-3.757-8.078-6.878c-2.402-3.2-4.082-6.961-4.961-11.36   l-21.441,2.32c1.679,10.797,5.441,19.118,11.363,25.04c5.918,5.918,13.598,9.441,23.039,10.558v14.961h11.918v-15.359   c10.641-1.52,19.043-5.68,24.961-12.481c6-6.801,8.961-15.121,8.961-25.039c0-8.883-2.403-16.16-7.121-21.762   C146.539,112.256,137.578,107.615,124.461,104.095L124.461,104.095z M112.539,100.095c-3.519-1.519-6.238-3.519-8-6   c-1.758-2.48-2.641-5.203-2.641-8.082c0-3.199,0.961-6.078,2.883-8.718c1.918-2.641,4.481-4.481,7.68-5.602v28.402H112.539z    M134.539,153.373c-2.559,3.043-5.918,4.961-10,5.68v-32c4.961,1.441,8.481,3.441,10.641,6.082c2.16,2.64,3.281,5.839,3.281,9.519   C138.379,146.736,137.102,150.334,134.539,153.373L134.539,153.373z M134.539,153.373"/>
</g>
</svg>