<?xml version="1.0" encoding="utf-8"?>
<!-- Generator: Adobe Illustrator 23.0.4, SVG Export Plug-In . SVG Version: 6.00 Build 0)  -->
<svg version="1.1" id="Ebene_1" xmlns="http://www.w3.org/2000/svg" xmlns:xlink="http://www.w3.org/1999/xlink" x="0px" y="0px"
	 viewBox="0 0 512 512" style="enable-background:new 0 0 512 512;" xml:space="preserve">
<path d="M432,96c26.5,0,48-21.5,48-48S458.5,0,432,0s-48,21.5-48,48S405.5,96,432,96z M505,452.1c-9.4-9.4-24.6-9.4-33.9,0
	c-12.1,12.1-30.5,15.4-45.1,8.7l-135.8-70.2l49.2-73.8c12.7-19,10.2-44.5-6-60.6L293,215.7l-107-53.1c-2.9,19.9,3.4,40,17.7,54.4
	l75.1,75.2L232.9,361L35,258.7c-11.7-6-26.2-1.5-32.3,10.3S1.2,295.3,13,301.3l391.9,202.5c11.9,5.5,24.5,8.1,37.1,8.1
	c23.2,0,46-9,63-26C514.3,476.6,514.3,461.4,505,452.1z M120,91.6l-11.5,22.5c14.4,7.3,31.2,4.9,42.8-4.8l47.2,23.4
	c-0.1,0.1-0.1,0.2-0.2,0.3l114.5,56.8l32.4-13l6.4,19.1c4,12.1,12.6,22,24,27.7l58.1,29c15.9,7.9,35,1.5,42.9-14.3s1.5-35-14.3-42.9
	l-52.1-26.1l-17.1-51.2c-8.1-24.2-40.9-56.6-84.5-39.2l-81.2,32.5l-62.5-31c0.3-14.5-7.2-28.6-20.9-35.6l-11.1,21.7h-0.2l-34.4-7
	c-1.8-0.4-3.7,0.2-5,1.7c-1.9,2.2-1.7,5.5,0.5,7.4L120,91.6L120,91.6z"/>
</svg>
