<?xml version="1.0" encoding="utf-8"?>
<!-- Generator: Adobe Illustrator 27.0.1, SVG Export Plug-In . SVG Version: 6.00 Build 0)  -->
<svg version="1.1" id="Layer_1" xmlns="http://www.w3.org/2000/svg" xmlns:xlink="http://www.w3.org/1999/xlink" x="0px" y="0px"
	 viewBox="0 0 360 360" style="enable-background:new 0 0 360 360;" xml:space="preserve">
<circle cx="180" cy="277.7" r="4"/>
<path d="M180,126c-39.8,0-72,32.2-72,72s32.2,72,72,72s72-32.2,72-72S219.8,126,180,126z M180,262c-35.3,0-63.9-28.7-63.9-64
	s28.7-63.9,64-63.9c35.3,0,63.9,28.6,63.9,63.9c0,35.3-28.7,63.9-64,63.9c0,0,0,0,0,0V262z M164,202.9c0,4.9-4,8.8-8.8,8.8
	c-4.9,0-8.8-4-8.8-8.8c0-4.9,3.9-8.8,8.8-8.8c4.8,0,8.8,3.9,8.8,8.7V202.9z M213.7,202.9c0,4.9-4,8.8-8.8,8.8c-4.9,0-8.8-4-8.8-8.8
	c0-4.9,3.9-8.8,8.8-8.8c4.8,0,8.7,3.9,8.8,8.7L213.7,202.9z M221.6,184.6l8.1-8.8h-18c-19.1-13-44.2-13-63.3,0h-18.1l8.1,8.8
	c-10.7,8.6-12.3,24.3-3.7,34.9s24.3,12.3,34.9,3.7c0.8-0.7,1.6-1.4,2.4-2.2l8,8.7l8-8.7c10.1,9.3,25.8,8.6,35.1-1.5
	s8.6-25.8-1.5-35.1l0,0L221.6,184.6z M155.2,219.7c-9.3,0-16.8-7.5-16.8-16.8c0-9.3,7.5-16.8,16.8-16.8c9.2,0,16.8,7.5,16.8,16.7
	C172,212.1,164.5,219.6,155.2,219.7c0-0.1,0-0.1,0-0.1L155.2,219.7z M180,202.4c0-11.1-8.1-20.6-18.7-24.6c11.9-5,25.4-5,37.3,0
	C188,181.8,180,191.3,180,202.4z M204.8,219.6c-9.3,0-16.8-7.5-16.8-16.8s7.5-16.8,16.8-16.8s16.8,7.5,16.8,16.8c0,0,0,0,0,0
	C221.6,212.1,214.1,219.6,204.8,219.6L204.8,219.6z"/>
<path d="M139.9,277.6c0,0-8.7-6.7-24.4-8.6c-9.5-1-19.1,1.3-27.2,6.4c0,0,10.5,4.3,26.4,5.9S139.9,277.6,139.9,277.6z"/>
<path d="M115.5,263.8c0,0-7.8-8.1-22.5-13.7c-9.2-3.3-19.2-4-28.8-2.1c0,0,9,8.5,24.5,14.5S115.5,263.8,115.5,263.8z"/>
<path d="M92.2,244.6c0,0-4.6-11.2-16.7-22.4c-7.7-6.9-17.2-11.5-27.4-13.2c0,0,5.5,12.1,18.5,24S92.2,244.6,92.2,244.6z"/>
<path d="M87.6,223.2c0,0-1.5-12-10.3-26c-5.6-8.6-13.6-15.5-22.9-19.8c0,0,2.2,13.1,11.6,28S87.6,223.2,87.6,223.2z"/>
<path d="M88.2,194.5c0,0-0.4-12.3-7.8-27.3c-4.7-9.2-11.9-16.9-20.7-22.2c0,0,1,13.5,8.9,29.4S88.2,194.5,88.2,194.5z"/>
<path d="M123,255.6c0,0-3.7-9.2-13.5-18.4c-6.3-5.7-14-9.5-22.3-11c3.7,7.4,8.8,14.1,15,19.8C112.7,255.8,123,255.6,123,255.6z"/>
<path d="M147.9,269.3c-4.2-3.7-9.1-6.6-14.3-8.5c-5.7-2.2-11.9-2.8-18-1.9c4.7,3.9,10,6.9,15.6,9.1
	C141,271.8,147.9,269.3,147.9,269.3z"/>
<path d="M172,274.2c-4.2-1.5-8.7-2.1-13.1-1.9c-4.9,0.2-9.6,1.8-13.7,4.5c4.6,1.5,9.4,2.1,14.2,1.9C167.8,278.4,172,274.2,172,274.2
	z"/>
<path d="M112.2,233.5c0,0-1.7-9.8-9.4-20.8c-4.9-6.8-11.7-12.1-19.5-15.3c2.1,8,5.7,15.6,10.5,22.4
	C102,231.6,112.2,233.5,112.2,233.5z"/>
<path d="M102.4,203.8c0,0,1.9-9.9-1.3-23.1c-2.1-8.2-6.4-15.6-12.5-21.4c-0.9,8.4-0.3,16.8,1.7,25
	C93.8,198.4,102.4,203.8,102.4,203.8z"/>
<path d="M220.1,277.6c0,0,8.7-6.7,24.4-8.6c9.5-1,19.1,1.3,27.2,6.4c0,0-10.5,4.3-26.4,5.9S220.1,277.6,220.1,277.6z"/>
<path d="M244.5,263.8c0,0,7.9-8.1,22.4-13.7c9.2-3.3,19.2-4,28.8-2.1c0,0-9,8.5-24.5,14.5S244.5,263.8,244.5,263.8z"/>
<path d="M267.9,244.6c0,0,4.6-11.2,16.7-22.4c7.7-6.9,17.2-11.5,27.4-13.2c0,0-5.5,12.1-18.5,24S267.9,244.6,267.9,244.6z"/>
<path d="M272.4,223.2c0,0,1.5-12,10.3-26c5.6-8.6,13.6-15.5,22.9-19.8c0,0-2.2,13.1-11.6,28S272.4,223.2,272.4,223.2z"/>
<path d="M271.9,194.5c0,0,0.4-12.3,7.8-27.3c4.7-9.2,11.9-16.9,20.7-22.2c0,0-1,13.5-8.9,29.4S271.9,194.5,271.9,194.5z"/>
<path d="M237,255.6c0,0,3.6-9.2,13.5-18.4c6.3-5.7,14-9.5,22.3-11c-3.7,7.4-8.8,14.1-15,19.8C247.4,255.8,237,255.6,237,255.6z"/>
<path d="M212.1,269.3c4.2-3.7,9.1-6.6,14.3-8.5c5.7-2.2,11.9-2.8,18-1.9c-4.7,3.9-10,6.9-15.6,9.1
	C219,271.8,212.1,269.3,212.1,269.3z"/>
<path d="M188,274.2c4.2-1.5,8.7-2.1,13.1-1.9c4.9,0.2,9.6,1.8,13.7,4.5c-4.6,1.5-9.4,2.1-14.2,1.9C192.2,278.4,188,274.2,188,274.2z
	"/>
<path d="M247.8,233.5c0,0,1.7-9.8,9.4-20.8c4.9-6.8,11.7-12.1,19.5-15.3c-2.1,8-5.7,15.6-10.5,22.4
	C258,231.6,247.8,233.5,247.8,233.5z"/>
<path d="M257.5,203.8c0,0-1.9-9.9,1.3-23.1c2.1-8.2,6.4-15.6,12.5-21.4c0.9,8.4,0.3,16.8-1.7,25
	C266.2,198.4,257.5,203.8,257.5,203.8z"/>
<path d="M100.3,46.1H91v27.6h-7.3V46.1h-9.3v-6.7h25.9V46.1z"/>
<path d="M113.1,49.5V56h-3.6c-2.6,0-3.9,1.3-3.9,3.9v13.8h-6.8V49.5h6.4V54c0.2-2.6,2.4-4.6,5-4.5L113.1,49.5z"/>
<path d="M113.8,61.6c0-7.1,5-12.8,12-12.8c3.4,0,6,1.1,7.6,2.7v-2.1h6.4v24.2h-6.4v-2.9c-1.6,2.1-3.9,3.6-7.8,3.6
	C118.8,74.4,113.8,68.7,113.8,61.6z M133.4,61.6c0-3.5-2.9-6.3-6.4-6.3c-3.5,0-6.3,2.9-6.3,6.4c0,3.5,2.9,6.3,6.3,6.3
	c3.4,0.1,6.3-2.6,6.4-6C133.4,61.9,133.4,61.7,133.4,61.6z"/>
<path d="M142.4,49.5h7.3l3.7,12.8c0.4,1.5,0.7,2.4,0.9,3.6c0.2-1.1,0.5-2.1,0.9-3.6l3.7-12.8h7.3l-8,24.2h-7.8L142.4,49.5z"/>
<path d="M190.8,63.2h-17.9c0.1,3.1,2.7,5.5,5.8,5.5c2.8,0,4.8-1.5,5.4-3.7h6.6c-1.2,5.9-5.5,9.3-12,9.3c-7.6,0-12.6-5.6-12.6-12.8
	c-0.2-6.9,5.2-12.6,12.1-12.8c0.2,0,0.3,0,0.5,0c7.6,0,12.2,4.7,12.2,13.3L190.8,63.2z M173.1,58.1h11.2c-0.7-2.4-2.6-4-5.7-4
	C176.1,54.1,173.9,55.7,173.1,58.1z"/>
<path d="M193.8,39.4h6.9v34.2h-6.9V39.4z"/>
<path d="M204.7,39.4h6.9v34.2h-6.9V39.4z"/>
<path d="M239,63.2h-18c0.1,3.1,2.7,5.5,5.8,5.5c2.8,0,4.8-1.5,5.4-3.7h6.6c-1.2,5.9-5.5,9.3-12,9.3c-7.6,0-12.6-5.6-12.6-12.8
	c-0.2-6.9,5.2-12.6,12.1-12.8c0.2,0,0.3,0,0.5,0c7.6,0,12.2,4.7,12.2,13.3L239,63.2z M221.4,58.1h11.2c-0.7-2.4-2.6-4-5.7-4
	C224.4,54.1,222.2,55.7,221.4,58.1L221.4,58.1z"/>
<path d="M256.5,49.5V56h-3.6c-2.6,0-3.9,1.3-3.9,3.9v13.8h-6.9V49.5h6.4V54c0.2-2.6,2.4-4.6,5-4.5L256.5,49.5z"/>
<path d="M258.3,65.8h6.9c-0.1,1.4,0.9,2.7,2.3,2.8c0.1,0,0.3,0,0.4,0c1.6,0,2.6-0.8,2.6-2s-1.1-2-3.3-2.7l-3.2-0.9
	c-3.2-0.9-5.4-3.2-5.4-6.7c0-4.5,4-7.4,9-7.4c5.7,0,8.8,3.2,8.8,7.7h-6.5c0-1.3-1.1-2.3-2.3-2.3c0,0,0,0-0.1,0
	c-1.4,0-2.3,0.8-2.3,1.7c0,1.1,0.9,1.7,2.8,2.2l3.5,1c3.2,0.9,5.5,3.1,5.5,6.7c0,4.5-3.6,8.5-9.3,8.5
	C262.6,74.4,258.3,71.1,258.3,65.8z"/>
<path d="M279.7,50.5h0.6c1.7,0,3.2-0.9,3.5-3.4c-0.3,0.1-0.7,0.2-1,0.2c-2.3,0-4.2-1.8-4.3-4.1c0-0.1,0-0.1,0-0.2
	c0-2.4,1.9-4.3,4.2-4.3c0,0,0,0,0.1,0c3.1,0,4.8,2.8,4.8,6.6c0,6-2.9,8.8-7,8.8h-1L279.7,50.5z"/>
<path d="M105.2,100.6c0-10.5,7.8-17.8,17.3-17.8c9.2,0,15,5.1,16.3,13.2h-7.4c-1.1-4-4.3-6.4-8.9-6.4c-5.5,0-10,4.5-10,11
	s4.5,11.1,10,11.1c4.6,0,7.8-2.3,8.9-6.5h7.5c-1.5,8.2-7.9,13.3-16.4,13.3C112.9,118.4,105.2,111.1,105.2,100.6z"/>
<path d="M141.8,83.4h6.9v13.3c1.1-2,3.8-4,7.7-4c4.8,0,8.2,3.4,8.2,8.9v16h-6.9v-14c0.2-2.5-1.7-4.6-4.2-4.8
	c-2.5-0.2-4.6,1.7-4.8,4.2c0,0.2,0,0.4,0,0.6v14h-6.9L141.8,83.4z"/>
<path d="M167.2,105.6c0-7.1,5.2-12.8,13.1-12.8s13.1,5.7,13.1,12.8s-5.2,12.8-13.1,12.8S167.2,112.7,167.2,105.6z M186.5,105.6
	c-0.1-3.4-3-6.1-6.4-6c-3.4,0.1-6.1,3-6,6.4c0.1,3.4,2.9,6,6.2,6c3.3,0.1,6.1-2.6,6.2-5.9C186.5,105.9,186.5,105.8,186.5,105.6
	L186.5,105.6z"/>
<path d="M195,86.1c0-2.4,1.9-4.3,4.3-4.3s4.3,1.9,4.3,4.3s-1.9,4.3-4.3,4.3c0,0,0,0,0,0C196.9,90.4,195,88.5,195,86.1
	C195,86.1,195,86.1,195,86.1z M195.9,93.5h6.9v24.2h-6.8L195.9,93.5z"/>
<path d="M205.4,105.6c-0.2-6.8,5.2-12.6,12-12.8c0.3,0,0.5,0,0.8,0c7.6,0,11.7,4.1,12.5,9.7h-7.1c-0.7-2-2.4-3.4-5.3-3.4
	c-3.5,0.3-6.2,3.4-5.9,6.9c0.2,3.2,2.8,5.7,5.9,5.9c2.9,0,4.6-1.3,5.3-3.4h7.1c-1.1,5.9-5.1,9.7-12.5,9.7c-6.8,0.2-12.6-5.2-12.8-12
	C205.4,106.1,205.4,105.8,205.4,105.6z"/>
<path d="M256.6,107.2h-18c0.1,3.1,2.7,5.5,5.8,5.5c2.8,0,4.9-1.5,5.4-3.7h6.6c-1.2,5.9-5.5,9.3-12,9.3c-7.6,0-12.6-5.6-12.6-12.8
	c-0.2-6.9,5.2-12.6,12.1-12.8c0.2,0,0.3,0,0.5,0c7.6,0,12.2,4.7,12.2,13.3L256.6,107.2z M239,102.1h11.2c-0.7-2.4-2.6-4-5.7-4
	C242,98.1,239.8,99.7,239,102.1z"/>
<polygon points="254.8,85.3 258.8,85.3 258.8,86.2 257.3,86.2 257.3,90.8 256.3,90.8 256.3,86.2 254.8,86.2 "/>
<path d="M262.2,89.5l-1.5-4.1h-1.1v5.5h0.9v-3.1c0-0.3,0-0.6,0-0.8l1.4,3.9h0.7l1.4-3.9c0,0.3,0,0.6,0,0.8v3.1h0.9v-5.5h-1.1
	L262.2,89.5z"/>
<path d="M129.8,308.7l11.4-8.8c1.5-1.2,2.2-2.3,2.2-3.9c0-1.9-1.3-3.2-3.5-3.2c-2.2,0-3.7,1.6-3.8,3.4h-6.9c0-4.8,3.6-9.5,10.8-9.5
	c6.7,0,10.7,3.6,10.7,8.7c0,4.2-1.9,6.6-6.4,9.7l-3.5,2.4h10.2v6.1h-21.3V308.7z"/>
<path d="M153,300.6c0-7.6,5.6-13.8,14.1-13.8c8.5,0,14.1,6.1,14.1,13.8s-5.6,13.8-14.1,13.8C158.6,314.4,153,308.2,153,300.6z
	 M174,300.6c0-4.4-3-7.2-7-7.2s-7,2.8-7,7.2s3,7.2,7,7.2S174,305,174,300.6z"/>
<path d="M183.7,308.7l11.4-8.8c1.5-1.2,2.2-2.3,2.2-3.9c0-1.9-1.3-3.2-3.5-3.2c-2.2,0-3.7,1.6-3.8,3.4H183c0-4.8,3.6-9.5,10.8-9.5
	c6.7,0,10.7,3.6,10.7,8.7c0,4.2-1.9,6.6-6.4,9.7l-3.5,2.4H205v6.1h-21.3V308.7z"/>
<path d="M207.6,309.5h7.1c0.1,2.6,2,4.2,4.6,4.2c2.5,0,4.4-1.5,4.4-3.9c0-2.6-1.9-3.9-4.7-3.9h-1.7v-5.6h1.8c2.4,0,4-1.5,4-3.5
	c0-2.1-1.5-3.4-4-3.4c-2.2,0-3.8,1.5-4,3.3h-6.7c0-5.3,4.1-9.9,10.7-9.9c6.7,0,11,3.6,11,9.1c0,3.2-1.8,5.5-4,6.8
	c2.8,1.1,4.8,3.7,4.8,7.4c0,6.1-4.8,10.2-11.7,10.2C211.6,320.3,207.6,315.3,207.6,309.5z"/>
</svg>
