<?xml version="1.0" encoding="utf-8"?>
<!-- Generator: Adobe Illustrator 23.0.4, SVG Export Plug-In . SVG Version: 6.00 Build 0)  -->
<svg version="1.1" id="Ebene_1" xmlns="http://www.w3.org/2000/svg" xmlns:xlink="http://www.w3.org/1999/xlink" x="0px" y="0px"
	 viewBox="0 0 640 512" style="enable-background:new 0 0 640 512;" xml:space="preserve">
<path d="M616,192H480V24c0-13.3-10.7-24-24-24H312c-13.3,0-24,10.7-24,24v72h-64V16c0-8.8-7.2-16-16-16h-16c-8.8,0-16,7.2-16,16v80
	h-64V16c0-8.8-7.2-16-16-16H80c-8.8,0-16,7.2-16,16v80H24c-13.3,0-24,10.7-24,24v360c0,17.7,14.3,32,32,32h576c17.7,0,32-14.3,32-32
	V216C640,202.7,629.2,192,616,192z M128,404c0,6.6-5.4,12-12,12H76c-6.6,0-12-5.4-12-12v-40c0-6.6,5.4-12,12-12h40
	c6.6,0,12,5.4,12,12V404z M128,308c0,6.6-5.4,12-12,12H76c-6.6,0-12-5.4-12-12v-40c0-6.6,5.4-12,12-12h40c6.6,0,12,5.4,12,12V308z
	 M128,212c0,6.6-5.4,12-12,12H76c-6.6,0-12-5.4-12-12v-40c0-6.6,5.4-12,12-12h40c6.6,0,12,5.4,12,12V212z M256,404
	c0,6.6-5.4,12-12,12h-40c-6.6,0-12-5.4-12-12v-40c0-6.6,5.4-12,12-12h40c6.6,0,12,5.4,12,12V404z M256,308c0,6.6-5.4,12-12,12h-40
	c-6.6,0-12-5.4-12-12v-40c0-6.6,5.4-12,12-12h40c6.6,0,12,5.4,12,12V308z M256,212c0,6.6-5.4,12-12,12h-40c-6.6,0-12-5.4-12-12v-40
	c0-6.6,5.4-12,12-12h40c6.6,0,12,5.4,12,12V212z M416,308c0,6.6-5.4,12-12,12h-40c-6.6,0-12-5.4-12-12v-40c0-6.6,5.4-12,12-12h40
	c6.6,0,12,5.4,12,12V308z M416,212c0,6.6-5.4,12-12,12h-40c-6.6,0-12-5.4-12-12v-40c0-6.6,5.4-12,12-12h40c6.6,0,12,5.4,12,12V212z
	 M416,116c0,6.6-5.4,12-12,12h-40c-6.6,0-12-5.4-12-12V76c0-6.6,5.4-12,12-12h40c6.6,0,12,5.4,12,12V116z M576,404
	c0,6.6-5.4,12-12,12h-40c-6.6,0-12-5.4-12-12v-40c0-6.6,5.4-12,12-12h40c6.6,0,12,5.4,12,12V404z M576,308c0,6.6-5.4,12-12,12h-40
	c-6.6,0-12-5.4-12-12v-40c0-6.6,5.4-12,12-12h40c6.6,0,12,5.4,12,12V308z"/>
</svg>
